<?xml version="1.0" encoding="UTF-8" standalone="no"?>
<svg
   version="1.1"
   id="Layer_1"
   x="0px"
   y="0px"
   width="897.258"
   viewBox="0 0 897.258 897.19897"
   enable-background="new 0 0 1024 1024"
   xml:space="preserve"
   sodipodi:docname="safari-pinned-tab.svg"
   inkscape:version="1.3.2 (091e20e, 2023-11-25)"
   inkscape:export-filename="adobe_express_red.png"
   inkscape:export-xdpi="96"
   inkscape:export-ydpi="96"
   height="897.19897"
   xmlns:inkscape="http://www.inkscape.org/namespaces/inkscape"
   xmlns:sodipodi="http://sodipodi.sourceforge.net/DTD/sodipodi-0.dtd"
   xmlns="http://www.w3.org/2000/svg"
   xmlns:svg="http://www.w3.org/2000/svg"><defs
   id="defs3" /><sodipodi:namedview
   id="namedview3"
   pagecolor="#ffffff"
   bordercolor="#000000"
   borderopacity="0.25"
   inkscape:showpageshadow="2"
   inkscape:pageopacity="0.0"
   inkscape:pagecheckerboard="0"
   inkscape:deskcolor="#d1d1d1"
   inkscape:zoom="0.32712927"
   inkscape:cx="551.76964"
   inkscape:cy="560.94033"
   inkscape:window-width="1512"
   inkscape:window-height="870"
   inkscape:window-x="0"
   inkscape:window-y="496"
   inkscape:window-maximized="1"
   inkscape:current-layer="Layer_1" />
<path
   d="m 451.90007,65.054356 c -12.12757,-0.0713 -24.27485,0.47421 -36.43945,1.60742 -27.94489,2.60327 -55.27374,7.80368 -81.96484,16.34375 -72.02615,23.045444 -132.32256,63.655814 -180.6836,121.744144 -32.26165,38.75073 -55.464016,82.5639 -70.548816,130.62696 -8.69569,27.70612 -13.91683,56.14788 -16.17383,85.08984 -1.62048,20.77958 -1.24075,41.53939 0.64648,62.33984 2.47543,27.28336 7.7371,53.95834 15.92578,80.03711 14.58071,46.43569 37.186266,88.64494 68.113276,127.16407 16.30497,20.38291 34.71491,38.76161 54.9043,55.1914 37.04806,30.14908 78.29598,52.83712 123.76367,67.79883 37.42309,12.31444 75.82866,18.52954 115.15039,19.22656 15.98528,0.28333 31.89455,-1.02978 47.80078,-2.74609 23.72709,-2.56006 46.92312,-7.51771 69.625,-14.68164 52.00148,-16.40984 98.70262,-42.30723 139.71875,-78.41211 35.42337,-31.18161 64.21109,-67.52781 86.12696,-109.29297 23.94547,-45.63289 38.1106,-94.08001 42.79687,-145.48828 2.72449,-29.88712 1.69672,-59.55902 -2.61718,-89.07617 -5.95868,-40.7712 -18.40737,-79.57636 -37.06446,-116.44141 C 762.42153,219.65571 722.45117,173.15317 671.04461,136.43913 616.20952,97.276516 555.06236,74.518566 488.22429,67.146156 c -12.08788,-1.33333 -24.19664,-2.0205 -36.32422,-2.0918 z"
   style="opacity:1;fill:#ffe6d5"
   id="path17"
   inkscape:label="circle inside" /><path
   fill="#000000"
   opacity="1"
   stroke="none"
   d="M 285.75115,30.583792 C 317.57613,18.305472 349.99859,9.6621464 383.31612,4.5958774 412.19808,0.20408535 441.34072,-0.75511265 470.47631,0.52181135 515.6527,2.5017304 559.47252,11.711996 601.98333,27.089423 c 58.31488,21.094213 109.84796,53.155323 154.90478,95.748127 57.45313,54.31134 97.55139,119.39488 120.80042,194.83671 8.97278,29.11615 14.62787,58.93042 17.53375,89.33179 2.06769,21.63187 2.57941,43.28495 1.44733,64.86704 -2.52564,48.15136 -12.56684,94.79638 -30.13501,139.82068 -23.62531,60.54791 -58.65656,113.52136 -105.27332,158.68365 -58.3598,56.53906 -127.17511,94.547 -206.07507,114.05261 -24.39075,6.02991 -49.16559,9.94403 -74.28394,11.57892 -26.8031,1.74457 -53.59235,1.76453 -80.28143,-1.24951 -47.43543,-5.35699 -93.07944,-17.5332 -136.59451,-37.3114 C 196.44985,826.7335 139.92717,782.0062 94.250114,723.48826 54.903244,673.08006 28.192071,616.58049 12.855988,554.66105 7.582718,533.37016 4.316651,511.70469 2.105607,489.82762 -0.09706804,468.0333 -0.56570404,446.19697 0.67216496,424.46955 3.841477,368.84071 16.583359,315.35615 39.599004,264.46638 74.081764,188.22186 126.00885,126.55622 194.64171,78.813756 222.9605,59.114626 253.26873,43.220736 285.75115,30.583792 M 150.77486,690.00724 c 16.30498,20.38294 34.71474,38.76117 54.90414,55.19098 37.0481,30.14911 78.29609,52.83765 123.76383,67.79938 37.42313,12.31445 75.82901,18.52954 115.15079,19.22656 15.98529,0.28333 31.89496,-1.02923 47.80121,-2.74554 23.72711,-2.56006 46.9226,-7.51837 69.62451,-14.68231 52.00152,-16.40986 98.70172,-42.30634 139.71789,-78.41126 35.4234,-31.18164 64.2121,-67.5285 86.12799,-109.2937 23.9455,-45.63293 38.11005,-94.07996 42.79633,-145.48828 2.72449,-29.88715 1.69757,-59.55805 -2.61633,-89.07523 C 822.08654,351.7566 809.63823,312.94999 790.98113,276.08491 762.42247,219.65495 722.45098,173.15301 671.04436,136.43893 616.20922,97.276286 555.06145,74.518626 488.22332,67.146196 c -24.17579,-2.66665 -48.43363,-2.75175 -72.76285,-0.48532 -27.94492,2.60327 -55.27426,7.80425 -81.96539,16.34433 -72.02622,23.045464 -132.32209,63.655894 -180.68317,121.744284 -32.26169,38.75076 -55.462856,82.56329 -70.547686,130.6264 -8.69569,27.70615 -13.91758,56.14948 -16.17459,85.09147 -1.62048,20.7796 -1.24182,41.53891 0.64542,62.33938 2.47543,27.28339 7.73811,53.9588 15.9268,80.0376 14.58072,46.43573 37.185956,88.64374 68.113006,127.1629 z"
   id="path1"
   style="fill:#ff5555"
   inkscape:label="circle" />
<path
   d="m 301.83171,428.43913 c -1.31215,0.19009 -1.91633,1.59762 -2.625,2.68359 -17.65226,27.05027 -29.41994,55.85208 -27.37304,89.03516 1.16183,18.83457 6.65296,35.88728 18.6914,50.59179 14.4829,17.69029 33.96972,27.56599 55.10743,34.54102 32.75875,10.8098 66.86197,12.49121 100.93359,13.875 22.14454,0.89935 44.29616,-0.38147 66.42773,-1.0957 7.79846,-0.25159 15.64918,-0.31873 23.42969,-1.06055 18.69328,-1.78204 37.34926,-3.97254 56.05664,-5.57422 4.64386,-0.39758 5.9231,-2.06263 5.89453,-6.42383 -0.14392,-21.99094 -0.0509,-43.98281 -0.0918,-65.97461 -0.003,-1.56134 0.61132,-3.37939 -1.36719,-4.79687 -11.80608,2.51379 -23.8069,5.06995 -36.66992,7.68945 -33.6431,6.11096 -67.58378,8.80817 -101.75391,8.91016 -19.82179,0.0591 -39.58351,-0.95905 -59.31836,-2.85938 -18.94975,-1.8247 -37.52995,-5.16016 -55.37695,-11.97461 -15.1758,-5.79449 -24.84089,-16.71302 -28.23438,-32.45898 -2.96389,-13.75261 -1.76598,-27.4106 3.68555,-40.60938 3.16995,-7.67491 7.18891,-14.92984 11.16602,-22.86328 -9.27648,-3.90029 -18.14564,-7.61862 -27.00391,-11.36328 -0.6253,-0.26433 -1.14074,-0.33485 -1.57813,-0.27148 z"
   style="opacity:1;fill:#ff2a2a"
   id="path13"
   inkscape:label="stroke below inside" /><path
   fill="#000000"
   opacity="1"
   stroke="none"
   d="m 266.6751,574.51121 c -10.70984,-17.26764 -15.66181,-35.81128 -16.39929,-55.6825 -1.40009,-37.7243 11.5115,-70.84246 32.36944,-101.38998 7.95813,-11.65503 16.54953,-13.87363 29.32209,-8.34851 2.75039,1.18979 5.49987,2.4248 8.34469,3.34595 15.75287,5.10061 28.98254,13.83761 39.74793,26.50332 4.41101,5.18967 9.58377,9.7312 14.40252,14.57514 7.80997,7.85077 9.22074,15.27716 4.53498,25.40515 -3.07673,6.65027 -6.51288,13.13324 -9.67307,19.74615 -2.68225,5.6128 -4.207,11.53113 -4.33948,17.79877 -0.0577,2.73041 0.80503,4.25757 3.73514,4.85462 15.01263,3.05944 30.15137,5.00347 45.43848,6.03863 15.45215,1.04639 30.91006,2.13678 46.39322,1.84692 35.44922,-0.66363 70.80102,-2.65179 105.61346,-10.03521 8.28424,-1.75708 16.47516,-3.9607 24.69281,-6.02374 9.91242,-2.48859 18.21204,-0.27576 25.32983,7.41241 8.48627,9.16626 17.40125,17.94104 26.26288,26.75226 4.4195,4.39428 6.42701,9.69696 6.44727,15.72375 0.0861,25.66358 0.12604,51.328 0.0108,76.99134 -0.0525,11.70166 -7.63562,19.72296 -19.96167,21.93719 -9.69214,1.74109 -19.52417,1.96588 -29.29059,2.74066 -24.04602,1.90753 -48.1101,3.836 -72.20514,4.81488 -30.13336,1.22424 -60.32171,0.81238 -90.3728,-1.78869 -31.90387,-2.76148 -63.41845,-7.78791 -92.63943,-22.08106 -12.65714,-6.19116 -24.31949,-13.8064 -34.24344,-23.93298 -11.31165,-11.54254 -22.70148,-23.00836 -34.03519,-34.52936 -3.6441,-3.70435 -6.47369,-8.03558 -9.48544,-12.67511 m 293.57025,-32.58276 c -33.64313,6.11096 -67.58429,8.80932 -101.75446,8.91131 -19.8218,0.0591 -39.58163,-0.9602 -59.31649,-2.86053 -18.94977,-1.82471 -37.53119,-5.1593 -55.37821,-11.97376 -15.17581,-5.79449 -24.84079,-16.71216 -28.23428,-32.45813 -2.9639,-13.75262 -1.76642,-27.41205 3.68512,-40.61084 3.16995,-7.67492 7.19043,-14.9295 11.16754,-22.86294 -9.27649,-3.9003 -18.14639,-7.61731 -27.00467,-11.36197 -2.50119,-1.05731 -3.25738,0.96322 -4.20227,2.41119 -17.65228,27.05029 -29.42093,55.8526 -27.37402,89.03571 1.16183,18.83459 6.65243,35.88678 18.69089,50.59131 14.4829,17.6903 33.97058,27.56616 55.1083,34.5412 32.75879,10.80981 66.86099,12.49078 100.93265,13.87457 22.14456,0.89935 44.29642,-0.3808 66.42801,-1.09503 7.79846,-0.25159 15.64996,-0.31916 23.43048,-1.06098 18.6933,-1.78204 37.34942,-3.97327 56.05682,-5.57495 4.64386,-0.39758 5.92176,-2.06158 5.89319,-6.42279 -0.14392,-21.99097 -0.0507,-43.98328 -0.0916,-65.9751 -0.003,-1.56134 0.61169,-3.37933 -1.36682,-4.79681 -11.8061,2.51379 -23.80713,5.06903 -36.67017,7.68854 z"
   id="path2"
   inkscape:label="stroke below" /><path
   d="m 465.48992,262.45866 c -13.48661,0.05 -26.97487,0.43582 -40.45703,1.29687 -29.83939,1.90576 -59.05155,6.99394 -88.22071,16.61719 -11.77794,4.12884 -23.57792,8.20035 -35.08789,13.05274 -2.28625,0.9638 -4.0556,1.78338 -3.31836,5.04492 1.86594,8.25533 3.61484,16.55817 4.87891,24.92187 0.78757,5.21094 3.38877,6.27967 8.14258,5.86328 20.20145,-1.76931 40.40807,-3.55468 60.64453,-4.83203 31.6181,-1.99575 63.26401,-1.44433 94.81445,1.10352 31.85343,2.57238 63.26572,8.11753 94.17774,16.36523 3.74145,0.99829 7.45514,2.71027 11.3789,2.09571 0.30634,-0.59186 0.58734,-0.88117 0.58789,-1.17188 0.0402,-22.15296 0.0508,-44.30602 0.0879,-66.45898 0.005,-2.76935 -1.14007,-3.97385 -4.01953,-4.58204 -20.85355,-4.40474 -41.89931,-7.82965 -63.16406,-8.5957 -13.47438,-0.48541 -26.9587,-0.77067 -40.44531,-0.7207 z"
   style="opacity:1;fill:#ff2a2a"
   id="path15"
   inkscape:label="above stroke inside" />
<path
   fill="#000000"
   opacity="1"
   stroke="none"
   d="m 298.95391,270.74873 c 33.66378,-12.46695 67.67691,-22.02094 102.99878,-26.56592 15.53619,-1.99908 31.1217,-2.6185 46.76495,-3.03433 20.15765,-0.5358 40.27899,-0.11258 60.36694,1.2406 22.54486,1.51864 45.07026,3.45199 67.12915,8.81524 6.14161,1.49326 11.33881,4.36521 15.77686,9.01438 8.0517,8.43478 16.36859,16.6203 24.69366,24.78876 4.80671,4.7163 7.15497,10.46792 7.18982,17.00686 0.12787,23.99378 0.19391,47.98993 -0.007,71.98273 -0.12403,14.78171 -11.59656,23.8143 -26.10437,21.09872 -14.39209,-2.69384 -28.17035,-7.81213 -42.58362,-10.49676 -20.62341,-3.84137 -41.38098,-6.2421 -62.29126,-7.84784 -27.94232,-2.14584 -55.89014,-2.28394 -83.87906,-1.89172 -17.84689,0.25009 -35.47424,2.64468 -53.17224,4.4504 -7.11514,0.72596 -14.27564,1.28403 -21.42111,1.35608 -6.77011,0.0682 -12.55936,-2.73123 -17.34137,-7.63583 -9.18906,-9.42462 -18.39881,-18.83081 -27.72727,-28.11679 -3.37085,-3.35553 -4.93811,-7.435 -5.84094,-11.89569 -2.17468,-10.745 -4.29101,-21.5018 -6.44134,-32.25174 -2.50629,-12.52951 1.0878,-20.10809 12.40283,-25.81705 2.96939,-1.4982 6.08807,-2.70062 9.48697,-4.2001 m 37.85742,9.62448 c -11.77796,4.12884 -23.5763,8.20065 -35.08627,13.05304 -2.28626,0.9638 -4.05689,1.78232 -3.31965,5.04385 1.86594,8.25534 3.61441,16.5575 4.87848,24.92121 0.78757,5.21093 3.38962,6.28015 8.14344,5.86377 20.20147,-1.76932 40.40808,-3.55512 60.64456,-4.83246 31.61813,-1.99576 63.26501,-1.44443 94.81549,1.10342 31.85345,2.57239 63.2641,8.11874 94.17615,16.36646 3.74145,0.99829 7.45611,2.71048 11.37988,2.09591 0.30634,-0.59186 0.58777,-0.88205 0.58832,-1.17276 0.0402,-22.15298 0.0507,-44.306 0.0878,-66.45898 0.005,-2.76935 -1.14142,-3.97357 -4.02088,-4.58176 -20.85358,-4.40475 -41.89868,-7.82876 -63.16345,-8.59482 -26.94879,-0.97082 -53.93872,-1.1466 -80.90308,0.5755 -29.83941,1.90577 -59.05157,6.99436 -88.22076,16.61762 z"
   id="path3"
   inkscape:label="stroke above" />
</svg>
